<svg width="270" height="55" fill="none" xmlns="http://www.w3.org/2000/svg"><path d="M55.08 0H.135v55H55.08V0z" fill="#fff"/><path d="M.134 55V0h54.679v.268V0h.268v55H.134zm.67-.537h53.74V.671H.805v53.792z" fill="#0A2777"/><path d="M3.35 8.72c1.877 0 4.155.134 4.825.134 1.206 0 3.886-.135 4.959-.135 2.278 0 4.556.269 6.566 1.476.939.67 2.413 2.415 2.413 4.83 0 2.682-1.072 4.963-4.69 7.914 3.082 4.024 5.628 7.11 7.638 9.256.268.268.536.537.804.67v-.67c0-5.366 0-8.854-.134-9.927-.134-1.207-.402-1.744-1.474-2.012-.268-.134-.938-.134-1.34-.134-.402 0-.536-.134-.536-.268 0-.269.268-.269.804-.269 1.876 0 4.154.134 5.093.134.804 0 3.082-.134 4.422-.134.536 0 .804.134.804.269 0 .268-.268.268-.67.268-.268 0-.536 0-1.072.134-.938.134-1.206.805-1.34 2.012-.134 1.073-.134 4.561-.134 9.927V33c0 .134.134.268.268.268h13.536a.288.288 0 00.267-.268v-.805c0-5.366 0-8.854-.134-9.927-.133-1.207-.401-1.744-1.474-2.012-.268-.134-.938-.134-1.34-.134-.402 0-.67-.134-.67-.268 0-.269.268-.269.804-.269 1.876 0 4.155.134 5.093.134.804 0 3.082-.134 4.422-.134.536 0 .804.134.804.269 0 .268-.268.268-.67.268-.268 0-.67 0-1.072.134-.938.134-1.206.805-1.34 2.012-.134 1.073-.134 4.561-.134 9.927v4.159c0 3.22 0 5.634.134 7.243.134.94.268 1.744 1.34 1.879.536 0 1.206.134 1.742.134V3.085H3.216V8.72h.134z" fill="url(#paint0_linear)"/><path d="M17.958 16.768c0 2.951-1.072 4.561-2.144 5.366-.536.402-1.072.67-2.412.67-.939 0-1.877-.133-2.68-.402-.269-.134-.269-.268-.269-.67V11c-.134-.268 0-.402.268-.537.402-.134.938-.134 1.877-.134 2.01 0 5.36 1.476 5.36 6.44zm-13 17.842c.67-.135.939-.94 1.073-1.878.134-1.476.134-4.293.134-7.513V11.537c-.134-1.342-.402-1.879-1.609-2.147h-1.34v25.622c.134-.134.268-.134.536-.134.536-.134.938-.134 1.207-.268zm46.906 11.67c-2.278 0-4.556-.134-5.494-.134-.804 0-3.083.134-4.423.134-.536 0-.804-.134-.804-.402 0-.134.134-.268.536-.268.536 0 .938-.135 1.34-.135.67-.134.938-.939 1.073-2.012.133-1.475.133-3.89.133-7.244v-1.073a.288.288 0 00-.268-.268H30.422c0 .134-.134.134-.134.134v1.073c0 3.22 0 5.634.134 7.244.134.94.268 1.744 1.34 1.878.536.134 1.206.134 1.742.134.402 0 .536.134.536.269 0 .268-.268.402-.67.402-2.278 0-4.556-.134-5.495-.134-.804 0-3.082.134-4.422.134-.402 0-.67-.134-.67-.402 0-.135.134-.269.536-.269.536 0 .938-.134 1.206-.134.67-.134.938-.939 1.072-2.012.134-1.476.134-3.89.134-7.244v-.939c-1.608 0-2.412-.268-3.216-.67-1.474-.806-2.815-2.415-4.825-5.232-1.474-1.878-3.082-4.293-3.484-4.83-.134-.268-.402-.268-.67-.268l-3.083-.134a.288.288 0 00-.268.268v.537c0 3.354 0 6.036.134 7.512.134 1.073.268 1.744 1.34 1.878.536 0 1.34.134 1.743.134.268 0 .402.134.402.268 0 .269-.268.403-.67.403-2.01 0-4.691-.134-5.227-.134-.67 0-2.949.134-4.289.134-.402 0-.536 0-.67-.134v16.634H51.73l.134-5.098c.135 0 .135 0 0 0z" fill="url(#paint1_linear)"/><path d="M51.998 3.085v42.659c-.536 0-1.34-.134-1.742-.134-1.072-.134-1.34-.94-1.34-1.878-.134-1.476-.134-4.025-.134-7.244v-4.159c0-5.366 0-8.853.134-9.927.134-1.207.402-1.878 1.34-2.012.402-.134.804-.134 1.072-.134.402 0 .67-.134.67-.268 0-.268-.267-.268-.804-.268-1.34 0-3.618.134-4.422.134-.938 0-3.217-.134-5.093-.134-.536 0-.804.134-.804.268 0 .268.268.268.67.268.536 0 1.072 0 1.34.134 1.207.268 1.474.805 1.474 2.012.134 1.074.134 4.561.134 9.927v.805a.288.288 0 01-.268.268h-13.67a.288.288 0 01-.267-.268v-.805c0-5.366 0-8.853.134-9.927.134-1.207.402-1.878 1.34-2.012.402-.134.804-.134 1.072-.134.402 0 .67-.134.67-.268 0-.268-.268-.268-.804-.268-1.34 0-3.618.134-4.423.134-.938 0-3.216-.134-5.092-.134-.536 0-.804.134-.804.268 0 .268.268.268.536.268.536 0 1.072 0 1.34.134 1.206.268 1.474.805 1.474 2.012.134 1.074.134 4.561.134 9.927V33c-.268-.268-.536-.403-.804-.67-2.144-2.147-4.556-5.367-7.639-9.257 3.619-2.951 4.69-5.232 4.69-7.915 0-2.414-1.473-4.158-2.412-4.829-1.876-1.341-4.288-1.475-6.566-1.475-1.073 0-3.753.134-4.96.134-.803 0-2.947-.134-4.824-.134h-.134V3.085h48.782zm-.402.537H3.752v4.695c1.073 0 2.279 0 3.217.134h6.299c2.144 0 4.69.134 6.834 1.61 1.207.805 2.547 2.817 2.547 5.232 0 2.95-1.34 5.366-4.423 8.048l.938 1.074c2.547 3.22 4.557 5.768 6.433 7.78 0-5.098 0-8.451-.134-9.524 0-1.073-.268-1.342-1.206-1.61-.268 0-.804-.134-1.34-.134-.938 0-1.072-.537-1.072-.805 0-.805.938-.805 1.206-.805h9.515c.268 0 1.206 0 1.206.805 0 .402-.134.805-1.072.805-.268 0-.536 0-.938.134-.536.134-.804.402-.938 1.61v10.195h13v-.537c0-5.232 0-8.72-.135-9.927 0-1.073-.268-1.341-1.206-1.61-.268 0-.804-.134-1.34-.134-.938 0-1.072-.536-1.072-.804 0-.805.938-.805 1.206-.805h10.051V3.622h.268zm0 17.037h-.402c-.268 0-.536 0-.938.134-.536.134-.804.402-.938 1.61-.134 1.073-.134 4.56-.134 9.926v4.159c0 3.22 0 5.634.134 7.11.134 1.073.268 1.341.938 1.475.402 0 .804.134 1.206.134V20.658h.134z" fill="#0A2777"/><path d="M3.216 9.39c.536 0 1.072 0 1.34.134 1.206.269 1.474.805 1.474 2.013v13.682c0 3.22 0 6.037-.134 7.513-.134 1.073-.268 1.744-1.072 1.878-.268 0-.804.134-1.206.134-.268 0-.402 0-.536.134V9.39h.134zm9.381.94c2.145 0 5.36 1.475 5.36 6.438 0 2.951-1.071 4.561-2.143 5.366-.536.403-1.072.67-2.413.67-.938 0-1.876-.133-2.68-.401-.268-.135-.268-.269-.268-.671V11c-.134-.268 0-.402.268-.537.268-.134.938-.134 1.876-.134zm-2.01 14.085l3.082.134c.268 0 .402 0 .67.268.402.537 2.145 2.951 3.485 4.83 2.01 2.682 3.35 4.426 4.824 5.231.805.403 1.609.67 3.217.67v.94c0 3.22 0 5.634-.134 7.244-.134 1.073-.268 1.744-1.072 2.012-.268.134-.804.134-1.206.134-.402 0-.537.134-.537.268 0 .269.269.403.67.403 1.475 0 3.62-.134 4.423-.134.938 0 3.217.134 5.495.134.402 0 .67-.134.67-.403 0-.134-.134-.268-.536-.268-.536 0-1.34-.134-1.742-.134-1.073-.134-1.207-.94-1.34-1.878-.134-1.476-.134-4.024-.134-7.244v-1.073c.133 0 .133-.134.133-.134h13.67c.134 0 .268.134.268.268v1.073c0 3.22 0 5.634-.134 7.244-.134 1.073-.268 1.744-1.072 2.012-.268.134-.804.134-1.34.134-.402 0-.536.135-.536.269 0 .268.268.402.804.402 1.34 0 3.618-.134 4.423-.134.938 0 3.216.134 5.494.134h.134v5.634H3.216v-17.17c.134.134.268.134.67.134 1.474 0 3.619-.134 4.289-.134.536 0 3.082.134 5.226.134.402 0 .67-.134.67-.403 0-.134-.134-.268-.402-.268-.402 0-1.206-.134-1.742-.134-1.072-.134-1.34-.94-1.34-1.878-.134-1.476-.134-4.293-.134-7.512v-.537c-.134-.268 0-.268.134-.268zM3.752 9.793v24.549c.536 0 .804-.135 1.206-.135.268 0 .536-.402.67-1.61.134-1.475.134-4.292.134-7.512V11.403c0-1.074-.268-1.342-1.206-1.61-.268.134-.536 0-.804 0zm8.845 1.073c-.268 0-1.34 0-1.742.134v11c.536.134 1.608.268 2.546.268 1.34 0 1.743-.134 2.279-.536.67-.537 1.876-1.878 1.876-4.964 0-4.695-3.217-5.902-4.959-5.902zm-1.742 13.951v.268c0 3.22 0 6.037.134 7.513.134 1.073.268 1.475.938 1.475.536 0 1.34.134 1.608.134.67 0 .938.403.938.805 0 .269-.134.805-1.206.805-1.34 0-2.948 0-4.02-.134H3.618v15.56h47.844V46.55h-9.515c-1.072 0-1.206-.537-1.206-.805s.134-.805 1.072-.805c.536 0 .938-.134 1.206-.134.402-.134.536-.402.67-1.61.134-1.476.134-3.89.134-7.11v-.804h-13v.804c0 3.22 0 5.634.135 7.11.134 1.073.402 1.476.938 1.476.536.134 1.206.134 1.742.134.938 0 1.072.67 1.072.805 0 .134-.134.805-1.206.805h-9.917c-1.072 0-1.206-.537-1.206-.805s.134-.805 1.072-.805c.536 0 .938-.134 1.206-.134.402 0 .536-.403.67-1.61.134-1.476.134-3.89.134-7.11v-.536c-1.34 0-2.144-.269-2.948-.671-1.609-.805-2.949-2.415-4.96-5.366-.67-.805-1.34-1.878-1.875-2.683-.67-1.073-1.34-1.878-1.609-2.146 0 0 0-.134-.268-.134l-2.948.402z" fill="#000"/><path d="M78.379 17.727v3.058H73.21V35h-3.633V20.785h-5.191v-3.058h13.992zm8.894 4.171c.79 0 1.504.137 2.145.41a3.76 3.76 0 011.594 1.255c.351.476.566.968.644 1.476.078.5.117 1.32.117 2.461V35h-3.41v-7.77c0-.687-.117-1.242-.351-1.664-.305-.593-.883-.89-1.735-.89-.883 0-1.554.297-2.015.89-.453.586-.68 1.426-.68 2.52V35h-3.328V17.785h3.328v6.106c.484-.743 1.043-1.258 1.676-1.547a4.738 4.738 0 012.015-.446zm12.668 2.743c-.773 0-1.375.242-1.804.726-.422.485-.688 1.14-.797 1.969h5.191c-.054-.883-.324-1.55-.808-2.004-.477-.46-1.071-.691-1.782-.691zm0-2.754c1.063 0 2.02.199 2.871.597.852.399 1.555 1.028 2.11 1.887.5.758.824 1.637.973 2.637.085.586.121 1.43.105 2.531h-8.742c.047 1.281.449 2.18 1.207 2.695.46.32 1.016.48 1.664.48.687 0 1.246-.194 1.676-.585.234-.211.441-.504.621-.879h3.41c-.086.758-.481 1.527-1.184 2.309-1.093 1.242-2.625 1.863-4.593 1.863-1.625 0-3.059-.524-4.301-1.57-1.242-1.047-1.864-2.75-1.864-5.11 0-2.21.56-3.906 1.676-5.086 1.125-1.18 2.582-1.77 4.371-1.77zM115.188 35V17.727h3.574v6.585h6.75v-6.585h3.586V35h-3.586v-7.71h-6.75V35h-3.574zm22.828-2.355c.976 0 1.726-.348 2.25-1.043.523-.696.785-1.684.785-2.965 0-1.282-.262-2.266-.785-2.953-.524-.696-1.274-1.043-2.25-1.043-.977 0-1.731.347-2.262 1.043-.524.687-.785 1.671-.785 2.953 0 1.281.261 2.27.785 2.965.531.695 1.285 1.043 2.262 1.043zm6.539-4.008c0 1.875-.539 3.48-1.617 4.816-1.079 1.328-2.715 1.992-4.911 1.992-2.195 0-3.832-.664-4.91-1.992-1.078-1.336-1.617-2.941-1.617-4.816 0-1.844.539-3.442 1.617-4.793 1.078-1.352 2.715-2.028 4.91-2.028 2.196 0 3.832.676 4.911 2.028 1.078 1.351 1.617 2.949 1.617 4.793zm9.34-6.715c.062 0 .113.004.152.012.047 0 .144.003.293.011v3.422a9.101 9.101 0 00-.961-.058c-1.344 0-2.246.437-2.707 1.312-.258.492-.387 1.25-.387 2.274V35h-3.363V22.227h3.187v2.226c.516-.851.965-1.433 1.348-1.746.625-.523 1.438-.785 2.438-.785zm9.492 0c1.32 0 2.398.348 3.234 1.043.844.687 1.266 1.832 1.266 3.433V35h-3.422v-7.77c0-.671-.09-1.187-.27-1.546-.328-.657-.953-.985-1.875-.985-1.132 0-1.91.48-2.332 1.442-.218.507-.328 1.156-.328 1.945V35h-3.328V22.25h3.223v1.863c.429-.656.836-1.129 1.218-1.418.688-.515 1.559-.773 2.614-.773zm10.195 9c.07.594.223 1.015.457 1.265.414.446 1.18.669 2.297.669.656 0 1.176-.098 1.559-.294.39-.195.585-.488.585-.878a.948.948 0 00-.468-.856c-.313-.195-1.473-.531-3.481-1.008-1.445-.36-2.465-.808-3.058-1.347-.594-.532-.891-1.297-.891-2.297 0-1.18.461-2.192 1.383-3.035.93-.852 2.234-1.278 3.914-1.278 1.594 0 2.891.32 3.891.961 1.007.633 1.585 1.73 1.734 3.293h-3.34c-.047-.43-.168-.77-.363-1.02-.367-.453-.992-.679-1.875-.679-.727 0-1.246.113-1.559.34-.305.226-.457.492-.457.797 0 .383.164.66.492.832.328.18 1.489.488 3.481.925 1.328.313 2.324.786 2.988 1.418.656.641.984 1.442.984 2.403 0 1.265-.472 2.3-1.417 3.105-.938.797-2.391 1.196-4.36 1.196-2.008 0-3.492-.422-4.453-1.266-.953-.852-1.43-1.934-1.43-3.246h3.387zm17.66-8.977c1.68 0 2.992.606 3.938 1.817.953 1.21 1.429 2.773 1.429 4.687 0 1.985-.468 3.63-1.406 4.934-.937 1.304-2.246 1.957-3.926 1.957-1.054 0-1.902-.211-2.543-.633-.382-.25-.796-.688-1.242-1.313V35h-3.269V17.75h3.328v6.14c.422-.593.887-1.046 1.394-1.359.602-.39 1.367-.586 2.297-.586zm-.855 10.64c.859 0 1.527-.347 2.004-1.042.476-.695.714-1.61.714-2.742 0-.906-.117-1.656-.351-2.25-.445-1.125-1.266-1.688-2.461-1.688-1.211 0-2.043.551-2.496 1.653-.235.586-.352 1.343-.352 2.273 0 1.094.243 2 .727 2.719.484.719 1.223 1.078 2.215 1.078zm9.14 4.864l.422.024c.328.015.641.004.938-.035.297-.04.547-.13.75-.27.195-.133.375-.41.539-.832.172-.422.242-.68.211-.773l-4.688-13.336h3.715l2.789 9.421 2.637-9.421h3.551l-4.383 12.562c-.844 2.422-1.512 3.922-2.004 4.5-.492.586-1.477.879-2.953.879-.297 0-.535-.004-.715-.012-.18 0-.449-.011-.809-.035V37.45zM219.32 17.75h12.246v3.035h-8.66v3.973h7.582v3h-7.582V35h-3.586V17.75zm17.836 2.953h-3.386v-3.082h3.386v3.082zm-3.386 1.524h3.386V35h-3.386V22.227zm13.57-.305c.062 0 .113.004.152.012.047 0 .145.003.293.011v3.422a9.075 9.075 0 00-.961-.058c-1.344 0-2.246.437-2.707 1.312-.258.492-.387 1.25-.387 2.274V35h-3.363V22.227h3.188v2.226c.515-.851.965-1.433 1.347-1.746.625-.523 1.438-.785 2.438-.785zm16.687.023c.563 0 1.118.11 1.664.328.547.22 1.043.602 1.489 1.149.359.445.601.992.726 1.64.078.43.117 1.06.117 1.887L268 35h-3.422v-8.133c0-.484-.078-.883-.234-1.195-.297-.594-.844-.89-1.641-.89-.922 0-1.558.382-1.91 1.148-.18.406-.27.894-.27 1.465V35h-3.363v-7.605c0-.758-.078-1.31-.234-1.653-.281-.617-.832-.926-1.653-.926-.953 0-1.593.309-1.921.926-.18.352-.27.875-.27 1.57V35h-3.387V22.25h3.246v1.863c.414-.664.805-1.136 1.172-1.418.649-.5 1.489-.75 2.52-.75.976 0 1.765.215 2.367.645.484.398.852.91 1.102 1.535.437-.75.98-1.3 1.628-1.652.688-.352 1.454-.528 2.297-.528z" fill="#fff"/><defs><linearGradient id="paint0_linear" x1="27.613" y1=".515" x2="27.613" y2="54.565" gradientUnits="userSpaceOnUse"><stop stop-color="#fff"/><stop offset=".176" stop-color="#0C2577"/></linearGradient><linearGradient id="paint1_linear" x1="27.613" y1="54.604" x2="27.613" y2=".512" gradientUnits="userSpaceOnUse"><stop stop-color="#404040"/><stop offset=".165"/></linearGradient></defs></svg>