<svg width="24" height="24" viewBox="0 0 24 24" fill="none" xmlns="http://www.w3.org/2000/svg">
<path d="M10.7082 16.3258C10.5744 16.3112 10.4196 16.3042 10.2413 16.3037C10.1334 16.2948 9.93067 16.2953 9.38308 16.3464C8.9589 16.4065 8.51595 16.505 8.03499 16.65C7.93129 16.6894 7.7863 16.7495 7.585 16.8344C7.36963 16.9334 7.14956 17.0732 6.91542 17.2642C6.69253 17.4622 6.50343 17.7062 6.3622 17.9741C6.17732 18.2942 6.08301 18.6761 6.08301 19.1087C6.08301 19.9552 6.46449 20.6572 7.20727 21.1879C7.88015 21.6942 8.79279 21.9579 9.93301 21.9715C10.9611 21.9574 11.7714 21.7158 12.3406 21.2536C12.3416 21.2531 12.342 21.2526 12.343 21.2522C12.929 20.7712 13.2265 20.1434 13.2265 19.387C13.2265 18.7728 13.0229 18.2303 12.6053 17.7574C12.2374 17.3806 11.6879 16.939 10.9268 16.4079C10.8616 16.3624 10.7865 16.3347 10.7082 16.3258ZM12.2876 19.387C12.2876 19.8548 12.1112 20.2274 11.7484 20.5253C11.3473 20.851 10.7316 21.0218 9.93207 21.033C9.00817 21.0222 8.28133 20.8219 7.76237 20.4315C7.26452 20.0753 7.02193 19.6427 7.02193 19.1092C7.02193 18.8432 7.07308 18.6193 7.18334 18.4288C7.28094 18.2449 7.4006 18.0891 7.52353 17.9793C7.68026 17.8517 7.83275 17.7536 7.96367 17.6935C8.13775 17.6199 8.27289 17.564 8.3367 17.5382C8.74024 17.4176 9.13673 17.3294 9.49288 17.2783C9.87342 17.2431 10.0456 17.2375 10.116 17.2375C10.1451 17.2375 10.1568 17.2384 10.1601 17.2384C10.2802 17.2539 10.3938 17.2431 10.4928 17.2492C11.1436 17.7086 11.6274 18.099 11.9183 18.395C12.1665 18.6785 12.2876 19.0032 12.2876 19.387Z" fill="white"/>
<path d="M16.2233 2.47046H10.8155C10.0717 2.47046 9.26373 2.5582 8.40176 2.7337C7.50506 2.94297 6.63465 3.39155 5.78535 4.09304C4.57662 5.26189 3.96381 6.59121 3.96381 8.04393C3.96381 9.26345 4.40629 10.3446 5.26075 11.2366C6.10255 12.2276 7.32817 12.7404 8.90946 12.7601C8.97233 12.7601 9.03662 12.7592 9.10231 12.7573C9.06196 12.9187 9.04225 13.098 9.04225 13.2988C9.04225 13.7854 9.15627 14.2133 9.36273 14.5371C9.39511 14.5995 9.42889 14.6619 9.46361 14.7229C8.98453 14.7642 8.44305 14.8289 7.8415 14.9181C6.82891 15.0927 5.84869 15.4479 4.92056 15.9781C4.06329 16.4895 3.45798 17.1014 3.1253 17.7902C2.78699 18.4673 2.61572 19.1008 2.61572 19.6728C2.61572 20.8468 3.15252 21.8612 4.19608 22.6768C5.21148 23.5359 6.73976 23.9807 8.74898 23.9995C11.1148 23.9624 12.9631 23.3778 14.2441 22.2615C15.5021 21.1621 16.1398 19.8713 16.1398 18.4171C16.1215 17.4008 15.8798 16.558 15.412 15.8988C14.963 15.3099 14.4327 14.7633 13.8363 14.2748L12.9373 13.5386C12.8186 13.4189 12.6975 13.2814 12.5619 13.112C12.5065 13.0506 12.4334 12.9431 12.4334 12.7259C12.4334 12.5363 12.4826 12.3768 12.5995 12.2168C12.7219 12.0291 12.8533 11.8616 12.9612 11.7471C13.2484 11.4965 13.5196 11.2502 13.7918 10.9911C14.0325 10.7373 14.2615 10.459 14.475 10.1611C14.94 9.5037 15.1849 8.63422 15.2018 7.56861L15.2023 7.39265C15.2041 6.98958 15.2051 6.76717 15.0723 6.32703C14.8888 5.82543 14.7157 5.43738 14.4491 5.161L14.4369 5.1488H14.8944C15.0408 5.1488 15.1783 5.08077 15.2675 4.9644L16.5973 3.22451C16.7052 3.0828 16.7244 2.89182 16.6451 2.73135C16.5644 2.57181 16.4021 2.47046 16.2233 2.47046ZM14.6617 4.21082H13.2249C13.0175 4.21082 12.8388 4.35018 12.7796 4.5496C12.7205 4.74855 12.8045 4.96581 12.9786 5.07889C13.0842 5.1474 13.4769 5.52747 13.6444 5.68982L13.7875 5.82684C13.9532 5.99951 14.1193 6.45466 14.1817 6.62311C14.2661 6.90371 14.2657 7.01633 14.2638 7.38936L14.2633 7.56157C14.2497 8.42682 14.063 9.1194 13.7101 9.61725C13.5238 9.87814 13.3221 10.1231 13.1287 10.3281C12.8829 10.5609 12.622 10.7983 12.3156 11.0681C12.1368 11.2534 11.9679 11.4679 11.828 11.6842C11.607 11.9854 11.4954 12.3359 11.4954 12.7268C11.4954 13.1257 11.6192 13.4663 11.8459 13.7183C11.9923 13.9022 12.1415 14.0707 12.2893 14.219C12.3001 14.2297 12.3123 14.2405 12.324 14.2504L13.2418 15.0021C13.7819 15.4441 14.2615 15.9377 14.657 16.4558C15.0038 16.9447 15.1872 17.6105 15.2018 18.4265C15.2018 19.6057 14.6866 20.6295 13.6275 21.5553C12.5192 22.5215 10.8732 23.0287 8.74711 23.062C6.9739 23.0451 5.64693 22.6749 4.78871 21.9495C3.95865 21.3005 3.55465 20.5559 3.55465 19.6732C3.55465 19.2481 3.69307 18.7559 3.96803 18.2046C4.22235 17.6781 4.70472 17.2004 5.39448 16.7889C6.21938 16.3173 7.09637 15.9992 7.98978 15.8448C8.91884 15.7078 9.70058 15.6299 10.3129 15.6121C10.4889 15.6069 10.6475 15.5042 10.723 15.3451C10.799 15.1865 10.7793 14.9983 10.6728 14.8585C10.4964 14.6267 10.3354 14.3729 10.1759 14.0702C10.045 13.8623 9.98117 13.6099 9.98117 13.2988C9.98117 13.1271 10.0032 12.9849 10.0577 12.8554C10.1149 12.6893 10.1693 12.5372 10.22 12.3984C10.2754 12.2459 10.2482 12.0755 10.1482 11.9479C10.0586 11.8343 9.92252 11.7691 9.7794 11.7691C9.76204 11.7691 9.74468 11.7701 9.72732 11.7719C9.43358 11.8048 9.15862 11.8217 8.91603 11.8217C7.60548 11.8053 6.64403 11.4149 5.95755 10.6087C5.24761 9.86641 4.90273 9.02743 4.90273 8.04393C4.90273 6.83896 5.40481 5.76725 6.41036 4.79266C7.11889 4.20894 7.86074 3.82418 8.60258 3.65056C9.39042 3.49056 10.1351 3.40891 10.8159 3.40891H15.275L14.6617 4.21082Z" fill="white"/>
<path d="M9.45971 4.83215C8.81922 4.84764 8.27914 5.10806 7.8559 5.60685C7.8451 5.61952 7.83525 5.63265 7.8254 5.64673C7.48943 6.14036 7.32661 6.6978 7.34068 7.29231C7.34068 8.04025 7.55841 8.82199 7.99197 9.62296C8.21298 10.0157 8.50155 10.3531 8.84878 10.6243C9.23307 10.9265 9.67884 11.0794 10.1715 11.0794C10.1776 11.0794 10.1833 11.0794 10.1889 11.0794C10.8017 11.0564 11.3202 10.8312 11.7308 10.4103C11.7509 10.3897 11.7692 10.3667 11.7857 10.3427C11.9781 10.0528 12.1043 9.74918 12.1653 9.40664C12.1934 9.14388 12.2084 8.91583 12.2084 8.72861C12.2084 7.92436 12.002 7.10743 11.5975 6.30412C11.392 5.8851 11.1142 5.53646 10.7567 5.25727C10.3864 4.99028 9.95897 4.84764 9.45971 4.83215ZM11.27 8.72861C11.27 8.88205 11.2573 9.07631 11.2371 9.27244C11.2066 9.44277 11.1363 9.61498 11.0288 9.78578C10.7961 10.0101 10.5122 10.1269 10.1631 10.1415C9.88483 10.1396 9.64459 10.0565 9.4278 9.88619C9.17771 9.69052 8.96984 9.44746 8.81359 9.17015C8.45885 8.51511 8.27914 7.88306 8.27914 7.28198C8.26928 6.87939 8.37017 6.52371 8.58742 6.19619C8.83282 5.91513 9.11765 5.77999 9.45596 5.77108C9.74312 5.77999 9.989 5.86117 10.1931 6.00803C10.4235 6.18822 10.6126 6.42705 10.7571 6.7222C11.0978 7.39695 11.27 8.07216 11.27 8.72861Z" fill="white"/>
<path d="M21.3847 1.40768H19.977V0H19.0385V1.40768H17.6309V2.34613H19.0385V3.75381H19.977V2.34613H21.3847V1.40768Z" fill="white"/>
</svg>
