<svg width="24" height="24" viewBox="0 0 24 24" fill="none" xmlns="http://www.w3.org/2000/svg">
<path d="M12.0425 24C13.5958 24 14.855 22.7408 14.855 21.1875C14.855 19.6342 13.5958 18.375 12.0425 18.375C10.4892 18.375 9.22998 19.6342 9.22998 21.1875C9.22998 22.7408 10.4892 24 12.0425 24Z" fill="#EAEAEA"/>
<path d="M12.0425 0C8.01034 0 4.72998 3.28036 4.72998 7.3125V8.01562H10.355V7.3125C10.355 6.38198 11.112 5.625 12.0425 5.625C12.973 5.625 13.73 6.38198 13.73 7.3125C13.73 7.80834 13.5123 8.27766 13.1328 8.6002L9.22998 11.9183V16.9688H14.855V14.5192L16.7757 12.8862C18.4149 11.4933 19.355 9.46186 19.355 7.3125C19.355 3.28036 16.0746 0 12.0425 0V0Z" fill="#EAEAEA"/>
</svg>
