<svg width="24" height="24" viewBox="0 0 24 24" fill="none" xmlns="http://www.w3.org/2000/svg">
<path d="M13.7973 18.9193H1.80212C0.807291 18.9193 0 19.7265 0 20.7215V23.9985H15.5994V20.7215C15.5994 19.7265 14.7921 18.9193 13.7973 18.9193Z" fill="#EAEAEA"/>
<path d="M23.6766 19.174L12.7271 8.22441L14.842 6.11327C15.1907 6.42077 15.727 6.40574 16.0569 6.07577C16.4019 5.72705 16.4019 5.16829 16.0569 4.81957L11.4971 0.263506C11.1521 -0.0852107 10.5897 -0.0852107 10.2447 0.263506C9.89599 0.608511 9.89599 1.17099 10.2447 1.51594L10.2072 1.47845L4.4174 7.26444L4.4549 7.30565C4.10989 6.95693 3.54741 6.95693 3.20246 7.30565C2.85374 7.65066 2.85374 8.21313 3.20246 8.55814L7.75852 13.1179C8.10724 13.4629 8.66972 13.4629 9.01472 13.1179C9.35973 12.7692 9.35973 12.2105 9.01472 11.8618L9.05222 11.8992L11.1671 9.78807L22.1129 20.7339C22.5442 21.1651 23.2454 21.1651 23.6766 20.7339C24.1079 20.3027 24.1079 19.6052 23.6766 19.174Z" fill="#EAEAEA"/>
</svg>
