<svg width="24" height="24" fill="none" xmlns="http://www.w3.org/2000/svg"><path d="M10.708 16.326a4.48 4.48 0 00-.467-.022c-.108-.01-.31-.009-.858.042-.424.06-.867.159-1.348.304-.104.04-.249.1-.45.184a3.137 3.137 0 00-.67.43 2.535 2.535 0 00-.553.71c-.185.32-.279.702-.279 1.135 0 .846.381 1.548 1.124 2.079.673.506 1.586.77 2.726.784 1.028-.015 1.838-.256 2.408-.718l.002-.002a2.314 2.314 0 00.883-1.865c0-.614-.203-1.157-.62-1.63-.369-.376-.918-.818-1.68-1.35a.475.475 0 00-.218-.081zm1.58 3.061c0 .468-.177.84-.54 1.138-.4.326-1.016.497-1.816.508-.924-.01-1.65-.211-2.17-.602-.497-.356-.74-.788-.74-1.322 0-.266.051-.49.161-.68a1.67 1.67 0 01.34-.45 2.15 2.15 0 01.44-.285l.374-.156c.403-.12.8-.209 1.156-.26.38-.035.553-.04.623-.04h.044c.12.016.234.005.333.011.65.46 1.134.85 1.425 1.146.248.284.37.608.37.992z" fill="#fff"/><path d="M16.223 2.47h-5.407c-.744 0-1.552.088-2.414.264-.897.209-1.767.658-2.617 1.359-1.208 1.169-1.821 2.498-1.821 3.95 0 1.22.442 2.302 1.297 3.194.842.99 2.067 1.503 3.648 1.523.063 0 .128 0 .193-.003-.04.162-.06.341-.06.542 0 .486.114.914.32 1.238.033.063.067.125.102.186-.48.041-1.021.106-1.623.195a8.932 8.932 0 00-2.92 1.06c-.858.511-1.463 1.123-1.796 1.812-.338.677-.51 1.31-.51 1.883 0 1.174.538 2.188 1.581 3.004C5.211 23.536 6.74 23.98 8.75 24c2.366-.038 4.214-.622 5.495-1.738 1.258-1.1 1.896-2.39 1.896-3.845-.018-1.016-.26-1.859-.728-2.518a9.746 9.746 0 00-1.576-1.624l-.899-.736a5.325 5.325 0 01-.375-.427c-.055-.061-.129-.169-.129-.386 0-.19.05-.35.167-.51.122-.187.253-.354.361-.469.287-.25.559-.497.83-.756.242-.254.47-.532.684-.83.465-.657.71-1.527.727-2.592v-.176c.002-.403.003-.626-.13-1.066-.183-.502-.356-.89-.623-1.166l-.012-.012h.457a.47.47 0 00.373-.185l1.33-1.74a.47.47 0 00-.374-.754zm-1.561 1.74h-1.437a.467.467 0 00-.445.34.475.475 0 00.199.529c.105.068.498.448.665.61l.143.138c.166.173.332.628.395.796.084.28.084.393.082.766v.173c-.014.865-.201 1.557-.554 2.055a6.88 6.88 0 01-.581.711c-.246.233-.507.47-.813.74-.18.185-.348.4-.488.616a1.723 1.723 0 00-.333 1.043c0 .399.124.74.35.991a6.048 6.048 0 00.479.532l.918.752a8.77 8.77 0 011.415 1.454c.347.489.53 1.154.545 1.97 0 1.18-.515 2.204-1.575 3.13-1.108.965-2.754 1.473-4.88 1.506-1.773-.017-3.1-.387-3.958-1.113-.83-.649-1.234-1.393-1.234-2.276 0-.425.138-.917.413-1.468.254-.527.737-1.005 1.426-1.416a7.967 7.967 0 012.596-.944c.929-.137 1.71-.215 2.323-.233a.469.469 0 00.36-.754 5.556 5.556 0 01-.497-.788c-.131-.208-.195-.46-.195-.771 0-.172.022-.314.077-.444.057-.166.111-.318.162-.457a.47.47 0 00-.493-.626c-.293.033-.568.05-.811.05-1.31-.017-2.272-.407-2.958-1.213-.71-.743-1.055-1.582-1.055-2.565 0-1.205.502-2.277 1.507-3.251.709-.584 1.45-.969 2.193-1.142.787-.16 1.532-.242 2.213-.242h4.459l-.613.802z" fill="#fff"/><path d="M9.46 4.832a2.096 2.096 0 00-1.635.815 2.761 2.761 0 00-.484 1.645c0 .748.217 1.53.651 2.331.221.393.51.73.857 1.001.384.303.83.455 1.322.455h.018a2.197 2.197 0 001.542-.669.513.513 0 00.055-.067 2.43 2.43 0 00.38-.936c.027-.263.042-.491.042-.678 0-.805-.206-1.622-.61-2.425a2.955 2.955 0 00-.841-1.047 2.276 2.276 0 00-1.297-.425zm1.81 3.897c0 .153-.013.347-.033.543-.03.17-.1.343-.208.514a1.27 1.27 0 01-.866.356 1.16 1.16 0 01-.735-.256 2.408 2.408 0 01-.614-.716c-.355-.655-.535-1.287-.535-1.888-.01-.403.091-.758.308-1.086.246-.28.53-.416.869-.425.287.009.533.09.737.237.23.18.42.42.564.714.34.675.513 1.35.513 2.007zm10.115-7.321h-1.408V0h-.939v1.408h-1.407v.938h1.407v1.408h.939V2.346h1.408v-.938z" fill="#fff"/></svg>