<svg width="24" height="24" fill="none" xmlns="http://www.w3.org/2000/svg"><path d="M13.797 18.92H1.802A1.8 1.8 0 000 20.72v3.277h15.6V20.72c0-.994-.808-1.802-1.803-1.802zm9.88.254l-10.95-10.95 2.115-2.11a.892.892 0 001.215-.038.892.892 0 000-1.256L11.497.264a.88.88 0 00-1.252 0 .88.88 0 000 1.252l-.038-.038-5.79 5.786.038.042a.88.88 0 00-1.253 0 .88.88 0 000 1.252l4.557 4.56a.892.892 0 001.256 0 .892.892 0 000-1.256l.037.037 2.115-2.11 10.946 10.945a1.107 1.107 0 001.564 0 1.102 1.102 0 000-1.56z" fill="#EAEAEA"/></svg>