<svg width="270" height="55" viewBox="0 0 270 55" fill="none" xmlns="http://www.w3.org/2000/svg">
<path d="M55.081 0H0.134033V55H55.081V0Z" fill="white"/>
<path d="M0.134033 55V0H54.813V0.268293V0H55.081V55H0.134033ZM0.804118 54.4634H54.5449V0.670732H0.804118V54.4634Z" fill="#0A2777"/>
<path d="M3.35057 8.71947C5.22681 8.71947 7.5051 8.85362 8.17518 8.85362C9.38133 8.85362 12.0617 8.71947 13.1338 8.71947C15.4121 8.71947 17.6904 8.98777 19.7006 10.1951C20.6388 10.8658 22.1129 12.6097 22.1129 15.0244C22.1129 17.7073 21.0408 19.9878 17.4224 22.939C20.5047 26.9634 23.0511 30.0487 25.0613 32.1951C25.3294 32.4634 25.5974 32.7317 25.8654 32.8658V32.1951C25.8654 26.8292 25.8654 23.3414 25.7314 22.2683C25.5974 21.0609 25.3294 20.5244 24.2572 20.2561C23.9892 20.1219 23.3191 20.1219 22.9171 20.1219C22.515 20.1219 22.381 19.9878 22.381 19.8536C22.381 19.5853 22.649 19.5853 23.1851 19.5853C25.0613 19.5853 27.3396 19.7195 28.2777 19.7195C29.0818 19.7195 31.3601 19.5853 32.7003 19.5853C33.2364 19.5853 33.5044 19.7195 33.5044 19.8536C33.5044 20.1219 33.2364 20.1219 32.8343 20.1219C32.5663 20.1219 32.2982 20.1219 31.7622 20.2561C30.8241 20.3902 30.556 21.0609 30.422 22.2683C30.288 23.3414 30.288 26.8292 30.288 32.1951V33C30.288 33.1341 30.422 33.2683 30.556 33.2683H44.0917C44.2258 33.2683 44.3598 33.1341 44.3598 33V32.1951C44.3598 26.8292 44.3598 23.3414 44.2258 22.2683C44.0917 21.0609 43.8237 20.5244 42.7516 20.2561C42.4835 20.1219 41.8134 20.1219 41.4114 20.1219C41.0093 20.1219 40.7413 19.9878 40.7413 19.8536C40.7413 19.5853 41.0093 19.5853 41.5454 19.5853C43.4216 19.5853 45.6999 19.7195 46.6381 19.7195C47.4422 19.7195 49.7204 19.5853 51.0606 19.5853C51.5967 19.5853 51.8647 19.7195 51.8647 19.8536C51.8647 20.1219 51.5967 20.1219 51.1946 20.1219C50.9266 20.1219 50.5246 20.1219 50.1225 20.2561C49.1844 20.3902 48.9163 21.0609 48.7823 22.2683C48.6483 23.3414 48.6483 26.8292 48.6483 32.1951V36.3536C48.6483 39.5731 48.6483 41.9878 48.7823 43.5975C48.9163 44.5365 49.0504 45.3414 50.1225 45.4756C50.6586 45.4756 51.3287 45.6097 51.8647 45.6097V3.08533H3.21655V8.71947H3.35057Z" fill="url(#paint0_linear)"/>
<path d="M17.9584 16.7682C17.9584 19.7194 16.8863 21.3292 15.8141 22.134C15.2781 22.5365 14.742 22.8048 13.4018 22.8048C12.4637 22.8048 11.5256 22.6706 10.7215 22.4023C10.4534 22.2682 10.4534 22.134 10.4534 21.7316V10.9999C10.3194 10.7316 10.4534 10.5975 10.7215 10.4633C11.1235 10.3292 11.6596 10.3292 12.5977 10.3292C14.608 10.3292 17.9584 11.8048 17.9584 16.7682ZM4.95874 34.6096C5.62883 34.4755 5.89686 33.6706 6.03088 32.7316C6.16489 31.256 6.16489 28.4389 6.16489 25.2194V19.0487C6.16489 13.6828 6.16489 12.7438 6.16489 11.5365C6.03088 10.195 5.76284 9.65843 4.55669 9.39014C4.28866 9.39014 3.75259 9.39014 3.21652 9.39014V35.0121C3.35054 34.8779 3.48455 34.8779 3.75259 34.8779C4.28866 34.7438 4.69071 34.7438 4.95874 34.6096ZM51.8647 46.2804C49.5864 46.2804 47.3081 46.1462 46.37 46.1462C45.5659 46.1462 43.2876 46.2804 41.9474 46.2804C41.4114 46.2804 41.1433 46.1462 41.1433 45.8779C41.1433 45.7438 41.2773 45.6096 41.6794 45.6096C42.2155 45.6096 42.6175 45.4755 43.0196 45.4755C43.6896 45.3414 43.9577 44.5365 44.0917 43.4633C44.2257 41.9877 44.2257 39.5731 44.2257 36.2194V35.1462C44.2257 35.0121 44.0917 34.8779 43.9577 34.8779H30.556C30.556 34.8779 30.556 34.8779 30.422 34.8779C30.422 35.0121 30.288 35.0121 30.288 35.0121V36.0853C30.288 39.3048 30.288 41.7194 30.422 43.3292C30.556 44.2682 30.69 45.0731 31.7621 45.2072C32.2982 45.3414 32.9683 45.3414 33.5044 45.3414C33.9064 45.3414 34.0404 45.4755 34.0404 45.6096C34.0404 45.8779 33.7724 46.0121 33.3703 46.0121C31.0921 46.0121 28.8138 45.8779 27.8756 45.8779C27.0715 45.8779 24.7933 46.0121 23.4531 46.0121C23.051 46.0121 22.783 45.8779 22.783 45.6096C22.783 45.4755 22.917 45.3414 23.3191 45.3414C23.8551 45.3414 24.2572 45.2072 24.5252 45.2072C25.1953 45.0731 25.4633 44.2682 25.5974 43.195C25.7314 41.7194 25.7314 39.3048 25.7314 35.9511V35.0121C24.1232 35.0121 23.3191 34.7438 22.515 34.3414C21.0408 33.5365 19.7006 31.9267 17.6904 29.1096C16.2162 27.2316 14.608 24.817 14.2059 24.2804C14.0719 24.0121 13.8039 24.0121 13.5358 24.0121L10.4534 23.8779C10.3194 23.8779 10.1854 24.0121 10.1854 24.1462V24.6828C10.1854 28.0365 10.1854 30.7194 10.3194 32.195C10.4534 33.2682 10.5875 33.9389 11.6596 34.0731C12.1957 34.0731 12.9998 34.2072 13.4018 34.2072C13.6698 34.2072 13.8039 34.3414 13.8039 34.4755C13.8039 34.7438 13.5358 34.8779 13.1338 34.8779C11.1235 34.8779 8.44318 34.7438 7.90711 34.7438C7.23703 34.7438 4.95874 34.8779 3.61857 34.8779C3.21652 34.8779 3.0825 34.8779 2.94849 34.7438V51.3779H51.7307L51.8647 46.2804C51.9987 46.2804 51.9987 46.2804 51.8647 46.2804Z" fill="url(#paint1_linear)"/>
<path d="M51.9985 3.08533V45.7439C51.4624 45.7439 50.6583 45.6097 50.2563 45.6097C49.1841 45.4756 48.9161 44.6707 48.9161 43.7317C48.7821 42.2561 48.7821 39.7073 48.7821 36.4878V32.3292C48.7821 26.9634 48.7821 23.4756 48.9161 22.4024C49.0501 21.1951 49.3181 20.5243 50.2563 20.3902C50.6583 20.2561 51.0604 20.2561 51.3284 20.2561C51.7305 20.2561 51.9985 20.1219 51.9985 19.9878C51.9985 19.7195 51.7305 19.7195 51.1944 19.7195C49.8542 19.7195 47.5759 19.8536 46.7718 19.8536C45.8337 19.8536 43.5554 19.7195 41.6792 19.7195C41.1431 19.7195 40.8751 19.8536 40.8751 19.9878C40.8751 20.2561 41.1431 20.2561 41.5452 20.2561C42.0812 20.2561 42.6173 20.2561 42.8853 20.3902C44.0915 20.6585 44.3595 21.1951 44.3595 22.4024C44.4935 23.4756 44.4935 26.9634 44.4935 32.3292V33.1341C44.4935 33.2683 44.3595 33.4024 44.2255 33.4024H30.5558C30.4218 33.4024 30.2877 33.2683 30.2877 33.1341V32.3292C30.2877 26.9634 30.2877 23.4756 30.4218 22.4024C30.5558 21.1951 30.8238 20.5243 31.7619 20.3902C32.164 20.2561 32.566 20.2561 32.8341 20.2561C33.2361 20.2561 33.5041 20.1219 33.5041 19.9878C33.5041 19.7195 33.2361 19.7195 32.7 19.7195C31.3599 19.7195 29.0816 19.8536 28.2775 19.8536C27.3394 19.8536 25.0611 19.7195 23.1848 19.7195C22.6488 19.7195 22.3807 19.8536 22.3807 19.9878C22.3807 20.2561 22.6488 20.2561 22.9168 20.2561C23.4529 20.2561 23.9889 20.2561 24.257 20.3902C25.4631 20.6585 25.7312 21.1951 25.7312 22.4024C25.8652 23.4756 25.8652 26.9634 25.8652 32.3292V33C25.5971 32.7317 25.3291 32.5975 25.0611 32.3292C22.9168 30.1829 20.5045 26.9634 17.4221 23.0731C21.0406 20.1219 22.1127 17.8414 22.1127 15.1585C22.1127 12.7439 20.6385 11 19.7004 10.3292C17.8242 8.98777 15.4119 8.85362 13.1336 8.85362C12.0614 8.85362 9.38109 8.98777 8.17494 8.98777C7.37083 8.98777 5.22656 8.85362 3.35033 8.85362C3.21631 8.85362 3.21631 8.85362 3.21631 8.85362V3.08533H51.9985ZM51.5964 3.62191H3.75238V8.31703C4.82451 8.31703 6.03066 8.31703 6.96878 8.45118C7.63887 8.45118 8.04092 8.45118 8.30895 8.45118C8.97904 8.45118 9.91716 8.45118 10.8553 8.45118C11.7934 8.45118 12.7315 8.45118 13.2676 8.45118C15.4119 8.45118 17.9582 8.58533 20.1024 10.0609C21.3086 10.8658 22.6488 12.878 22.6488 15.2926C22.6488 18.2439 21.3086 20.6585 18.2262 23.3414L19.1643 24.4146C21.7107 27.6341 23.7209 30.1829 25.5971 32.1951C25.5971 27.0975 25.5971 23.7439 25.4631 22.6707C25.4631 21.5975 25.1951 21.3292 24.257 21.0609C23.9889 21.0609 23.4529 20.9268 22.9168 20.9268C21.9787 20.9268 21.8447 20.3902 21.8447 20.1219C21.8447 19.317 22.7828 19.317 23.0508 19.317C24.123 19.317 25.4631 19.317 26.4012 19.317C27.0713 19.317 27.7414 19.317 28.1435 19.317C28.5455 19.317 29.0816 19.317 29.8857 19.317C30.8238 19.317 31.8959 19.317 32.566 19.317C32.8341 19.317 33.7722 19.317 33.7722 20.1219C33.7722 20.5243 33.6382 20.9268 32.7 20.9268C32.432 20.9268 32.164 20.9268 31.7619 21.0609C31.2259 21.1951 30.9578 21.4634 30.8238 22.6707C30.8238 23.4756 30.8238 26.9634 30.8238 32.3292V32.8658H43.8235V32.3292C43.8235 27.0975 43.8235 23.6097 43.6894 22.4024C43.6894 21.3292 43.4214 21.0609 42.4833 20.7926C42.2153 20.7926 41.6792 20.6585 41.1431 20.6585C40.205 20.6585 40.071 20.1219 40.071 19.8536C40.071 19.0487 41.0091 19.0487 41.2771 19.0487C42.3493 19.0487 43.6894 19.0487 44.6276 19.0487C45.2976 19.0487 45.9677 19.0487 46.3698 19.0487C46.7718 19.0487 47.3079 19.0487 48.112 19.0487C49.0501 19.0487 50.1222 19.0487 50.7923 19.0487C50.9264 19.0487 51.1944 19.0487 51.3284 19.0487V3.62191H51.5964ZM51.5964 20.6585C51.4624 20.6585 51.3284 20.6585 51.1944 20.6585C50.9264 20.6585 50.6583 20.6585 50.2563 20.7926C49.7202 20.9268 49.4522 21.1951 49.3181 22.4024C49.1841 23.4756 49.1841 26.9634 49.1841 32.3292V36.4878C49.1841 39.7073 49.1841 42.1219 49.3181 43.5975C49.4522 44.6707 49.5862 44.939 50.2563 45.0731C50.6583 45.0731 51.0604 45.2073 51.4624 45.2073V20.6585H51.5964Z" fill="#0A2777"/>
<path d="M3.21654 9.39026C3.7526 9.39026 4.28867 9.39026 4.55671 9.52441C5.76286 9.7927 6.03089 10.3293 6.03089 11.5366C6.03089 12.6098 6.03089 13.6829 6.03089 19.0488V25.2195C6.03089 28.439 6.03089 31.2561 5.89688 32.7317C5.76286 33.8049 5.62884 34.4756 4.82474 34.6098C4.55671 34.6098 4.02064 34.7439 3.61859 34.7439C3.35055 34.7439 3.21654 34.7439 3.08252 34.8781V9.39026H3.21654ZM12.5977 10.3293C14.742 10.3293 17.9584 11.8049 17.9584 16.7683C17.9584 19.7195 16.8863 21.3293 15.8141 22.1342C15.2781 22.5366 14.742 22.8049 13.4018 22.8049C12.4637 22.8049 11.5256 22.6707 10.7215 22.4025C10.4535 22.2683 10.4535 22.1342 10.4535 21.7317V11C10.3194 10.7317 10.4535 10.5976 10.7215 10.4634C10.9895 10.3293 11.6596 10.3293 12.5977 10.3293ZM10.5875 24.4146L13.6699 24.5488C13.9379 24.5488 14.0719 24.5488 14.3399 24.8171C14.742 25.3537 16.4842 27.7683 17.8244 29.6464C19.8346 32.3293 21.1748 34.0732 22.649 34.8781C23.4531 35.2805 24.2572 35.5488 25.8654 35.5488V36.4878C25.8654 39.7073 25.8654 42.122 25.7314 43.7317C25.5974 44.8049 25.4634 45.4756 24.6593 45.7439C24.3912 45.8781 23.8552 45.8781 23.4531 45.8781C23.051 45.8781 22.917 46.0122 22.917 46.1464C22.917 46.4147 23.1851 46.5488 23.5871 46.5488C25.0613 46.5488 27.2056 46.4146 28.0097 46.4146C28.9478 46.4146 31.2261 46.5488 33.5044 46.5488C33.9064 46.5488 34.1745 46.4147 34.1745 46.1464C34.1745 46.0122 34.0404 45.8781 33.6384 45.8781C33.1023 45.8781 32.2982 45.7439 31.8962 45.7439C30.824 45.6098 30.69 44.8049 30.556 43.8659C30.422 42.3903 30.422 39.8415 30.422 36.622V35.5488C30.556 35.5488 30.556 35.4146 30.556 35.4146C30.556 35.4146 30.556 35.4146 30.69 35.4146H44.2257C44.3597 35.4146 44.4938 35.5488 44.4938 35.6829V36.7561C44.4938 39.9756 44.4938 42.3903 44.3597 44C44.2257 45.0732 44.0917 45.7439 43.2876 46.0122C43.0196 46.1464 42.4835 46.1464 41.9474 46.1464C41.5454 46.1464 41.4114 46.2805 41.4114 46.4146C41.4114 46.6829 41.6794 46.8171 42.2155 46.8171C43.5556 46.8171 45.8339 46.6829 46.638 46.6829C47.5762 46.6829 49.8544 46.8171 52.1327 46.8171H52.2668V52.4512H3.21654V35.2805C3.35055 35.4146 3.48457 35.4146 3.88662 35.4146C5.36081 35.4146 7.50508 35.2805 8.17516 35.2805C8.71123 35.2805 11.2576 35.4146 13.4018 35.4146C13.8039 35.4146 14.0719 35.2805 14.0719 35.0122C14.0719 34.8781 13.9379 34.7439 13.6699 34.7439C13.2678 34.7439 12.4637 34.6098 11.9276 34.6098C10.8555 34.4756 10.5875 33.6707 10.5875 32.7317C10.4535 31.2561 10.4535 28.439 10.4535 25.2195V24.6829C10.3194 24.4146 10.4535 24.4146 10.5875 24.4146ZM3.7526 9.7927V34.3415C4.28867 34.3415 4.55671 34.2073 4.95876 34.2073C5.22679 34.2073 5.49482 33.8049 5.62884 32.5976C5.76286 31.122 5.76286 28.3049 5.76286 25.0854V18.9146C5.76286 13.5488 5.76286 12.6098 5.76286 11.4025C5.76286 10.3293 5.49483 10.061 4.55671 9.7927C4.28867 9.92684 4.02064 9.7927 3.7526 9.7927ZM12.5977 10.8659C12.3297 10.8659 11.2576 10.8659 10.8555 11V21.7317C10.8555 21.8659 10.8555 22 10.8555 22C11.3916 22.1342 12.4637 22.2683 13.4018 22.2683C14.742 22.2683 15.144 22.1342 15.6801 21.7317C16.3502 21.1951 17.5564 19.8537 17.5564 16.7683C17.5564 12.0732 14.3399 10.8659 12.5977 10.8659ZM10.8555 24.8171V25.0854C10.8555 28.3049 10.8555 31.122 10.9895 32.5976C11.1235 33.6707 11.2576 34.0732 11.9276 34.0732C12.4637 34.0732 13.2678 34.2073 13.5358 34.2073C14.2059 34.2073 14.474 34.6098 14.474 35.0122C14.474 35.2805 14.3399 35.8171 13.2678 35.8171C11.9276 35.8171 10.3194 35.8171 9.2473 35.6829C8.71123 35.6829 8.30918 35.6829 8.17516 35.6829C7.90713 35.6829 7.37106 35.6829 6.70098 35.6829C5.76286 35.6829 4.69072 35.6829 3.7526 35.6829H3.61859V51.2439H51.4627V46.5488C50.2565 46.5488 48.9163 46.5488 47.9782 46.5488C47.3081 46.5488 46.638 46.5488 46.37 46.5488C45.968 46.5488 45.4319 46.5488 44.7618 46.5488C43.8237 46.5488 42.7515 46.5488 41.9474 46.5488C40.8753 46.5488 40.7413 46.0122 40.7413 45.7439C40.7413 45.4756 40.8753 44.939 41.8134 44.939C42.3495 44.939 42.7515 44.8049 43.0196 44.8049C43.4216 44.6707 43.5556 44.4025 43.6897 43.1951C43.8237 41.7195 43.8237 39.3049 43.8237 36.0854V35.2805H30.824V36.0854C30.824 39.3049 30.824 41.7195 30.9581 43.1951C31.0921 44.2683 31.3601 44.6707 31.8962 44.6707C32.4322 44.8049 33.1023 44.8049 33.6384 44.8049C34.5765 44.8049 34.7105 45.4756 34.7105 45.6098C34.7105 45.7439 34.5765 46.4146 33.5044 46.4146C32.1642 46.4146 30.69 46.4146 29.6179 46.4146C28.9478 46.4146 28.2777 46.4146 28.0097 46.4146C27.6076 46.4146 27.0716 46.4146 26.4015 46.4146C25.4634 46.4146 24.3912 46.4146 23.5871 46.4146C22.515 46.4146 22.381 45.8781 22.381 45.6098C22.381 45.3415 22.515 44.8049 23.4531 44.8049C23.9892 44.8049 24.3912 44.6707 24.6593 44.6707C25.0613 44.6707 25.1953 44.2683 25.3293 43.061C25.4634 41.5854 25.4634 39.1707 25.4634 35.9512V35.4146C24.1232 35.4146 23.3191 35.1464 22.515 34.7439C20.9068 33.939 19.5666 32.3293 17.5564 29.3781C16.8863 28.5732 16.2162 27.5 15.6801 26.6951C15.01 25.622 14.3399 24.8171 14.0719 24.5488C14.0719 24.5488 14.0719 24.4146 13.8039 24.4146L10.8555 24.8171Z" fill="black"/>
<path d="M78.3789 17.7266V20.7852H73.2109V35H69.5781V20.7852H64.3867V17.7266H78.3789ZM87.2734 21.8984C88.0625 21.8984 88.7773 22.0352 89.418 22.3086C90.0664 22.582 90.5977 23 91.0117 23.5625C91.3633 24.0391 91.5781 24.5312 91.6562 25.0391C91.7344 25.5391 91.7734 26.3594 91.7734 27.5V35H88.3633V27.2305C88.3633 26.543 88.2461 25.9883 88.0117 25.5664C87.707 24.9727 87.1289 24.6758 86.2773 24.6758C85.3945 24.6758 84.7227 24.9727 84.2617 25.5664C83.8086 26.1523 83.582 26.9922 83.582 28.0859V35H80.2539V17.7852H83.582V23.8906C84.0664 23.1484 84.625 22.6328 85.2578 22.3438C85.8984 22.0469 86.5703 21.8984 87.2734 21.8984ZM99.9414 24.6406C99.168 24.6406 98.5664 24.8828 98.1367 25.3672C97.7148 25.8516 97.4492 26.5078 97.3398 27.3359H102.531C102.477 26.4531 102.207 25.7852 101.723 25.332C101.246 24.8711 100.652 24.6406 99.9414 24.6406ZM99.9414 21.8867C101.004 21.8867 101.961 22.0859 102.812 22.4844C103.664 22.8828 104.367 23.5117 104.922 24.3711C105.422 25.1289 105.746 26.0078 105.895 27.0078C105.98 27.5938 106.016 28.4375 106 29.5391H97.2578C97.3047 30.8203 97.707 31.7188 98.4648 32.2344C98.9258 32.5547 99.4805 32.7148 100.129 32.7148C100.816 32.7148 101.375 32.5195 101.805 32.1289C102.039 31.918 102.246 31.625 102.426 31.25H105.836C105.75 32.0078 105.355 32.7773 104.652 33.5586C103.559 34.8008 102.027 35.4219 100.059 35.4219C98.4336 35.4219 97 34.8984 95.7578 33.8516C94.5156 32.8047 93.8945 31.1016 93.8945 28.7422C93.8945 26.5312 94.4531 24.8359 95.5703 23.6562C96.6953 22.4766 98.1523 21.8867 99.9414 21.8867ZM115.188 35V17.7266H118.762V24.3125H125.512V17.7266H129.098V35H125.512V27.2891H118.762V35H115.188ZM138.016 32.6445C138.992 32.6445 139.742 32.2969 140.266 31.6016C140.789 30.9062 141.051 29.918 141.051 28.6367C141.051 27.3555 140.789 26.3711 140.266 25.6836C139.742 24.9883 138.992 24.6406 138.016 24.6406C137.039 24.6406 136.285 24.9883 135.754 25.6836C135.23 26.3711 134.969 27.3555 134.969 28.6367C134.969 29.918 135.23 30.9062 135.754 31.6016C136.285 32.2969 137.039 32.6445 138.016 32.6445ZM144.555 28.6367C144.555 30.5117 144.016 32.1172 142.938 33.4531C141.859 34.7812 140.223 35.4453 138.027 35.4453C135.832 35.4453 134.195 34.7812 133.117 33.4531C132.039 32.1172 131.5 30.5117 131.5 28.6367C131.5 26.793 132.039 25.1953 133.117 23.8438C134.195 22.4922 135.832 21.8164 138.027 21.8164C140.223 21.8164 141.859 22.4922 142.938 23.8438C144.016 25.1953 144.555 26.793 144.555 28.6367ZM153.895 21.9219C153.957 21.9219 154.008 21.9258 154.047 21.9336C154.094 21.9336 154.191 21.9375 154.34 21.9453V25.3672C154.129 25.3438 153.941 25.3281 153.777 25.3203C153.613 25.3125 153.48 25.3086 153.379 25.3086C152.035 25.3086 151.133 25.7461 150.672 26.6211C150.414 27.1133 150.285 27.8711 150.285 28.8945V35H146.922V22.2266H150.109V24.4531C150.625 23.6016 151.074 23.0195 151.457 22.707C152.082 22.1836 152.895 21.9219 153.895 21.9219ZM163.387 21.9219C164.707 21.9219 165.785 22.2695 166.621 22.9648C167.465 23.6523 167.887 24.7969 167.887 26.3984V35H164.465V27.2305C164.465 26.5586 164.375 26.043 164.195 25.6836C163.867 25.0273 163.242 24.6992 162.32 24.6992C161.188 24.6992 160.41 25.1797 159.988 26.1406C159.77 26.6484 159.66 27.2969 159.66 28.0859V35H156.332V22.25H159.555V24.1133C159.984 23.457 160.391 22.9844 160.773 22.6953C161.461 22.1797 162.332 21.9219 163.387 21.9219ZM173.582 30.9219C173.652 31.5156 173.805 31.9375 174.039 32.1875C174.453 32.6328 175.219 32.8555 176.336 32.8555C176.992 32.8555 177.512 32.7578 177.895 32.5625C178.285 32.3672 178.48 32.0742 178.48 31.6836C178.48 31.3086 178.324 31.0234 178.012 30.8281C177.699 30.6328 176.539 30.2969 174.531 29.8203C173.086 29.4609 172.066 29.0117 171.473 28.4727C170.879 27.9414 170.582 27.1758 170.582 26.1758C170.582 24.9961 171.043 23.9844 171.965 23.1406C172.895 22.2891 174.199 21.8633 175.879 21.8633C177.473 21.8633 178.77 22.1836 179.77 22.8242C180.777 23.457 181.355 24.5547 181.504 26.1172H178.164C178.117 25.6875 177.996 25.3477 177.801 25.0977C177.434 24.6445 176.809 24.418 175.926 24.418C175.199 24.418 174.68 24.5312 174.367 24.7578C174.062 24.9844 173.91 25.25 173.91 25.5547C173.91 25.9375 174.074 26.2148 174.402 26.3867C174.73 26.5664 175.891 26.875 177.883 27.3125C179.211 27.625 180.207 28.0977 180.871 28.7305C181.527 29.3711 181.855 30.1719 181.855 31.1328C181.855 32.3984 181.383 33.4336 180.438 34.2383C179.5 35.0352 178.047 35.4336 176.078 35.4336C174.07 35.4336 172.586 35.0117 171.625 34.168C170.672 33.3164 170.195 32.2344 170.195 30.9219H173.582ZM191.242 21.9453C192.922 21.9453 194.234 22.5508 195.18 23.7617C196.133 24.9727 196.609 26.5352 196.609 28.4492C196.609 30.4336 196.141 32.0781 195.203 33.3828C194.266 34.6875 192.957 35.3398 191.277 35.3398C190.223 35.3398 189.375 35.1289 188.734 34.707C188.352 34.457 187.938 34.0195 187.492 33.3945V35H184.223V17.75H187.551V23.8906C187.973 23.2969 188.438 22.8438 188.945 22.5312C189.547 22.1406 190.312 21.9453 191.242 21.9453ZM190.387 32.5859C191.246 32.5859 191.914 32.2383 192.391 31.543C192.867 30.8477 193.105 29.9336 193.105 28.8008C193.105 27.8945 192.988 27.1445 192.754 26.5508C192.309 25.4258 191.488 24.8633 190.293 24.8633C189.082 24.8633 188.25 25.4141 187.797 26.5156C187.562 27.1016 187.445 27.8594 187.445 28.7891C187.445 29.8828 187.688 30.7891 188.172 31.5078C188.656 32.2266 189.395 32.5859 190.387 32.5859ZM199.527 37.4492L199.949 37.4727C200.277 37.4883 200.59 37.4766 200.887 37.4375C201.184 37.3984 201.434 37.3086 201.637 37.168C201.832 37.0352 202.012 36.7578 202.176 36.3359C202.348 35.9141 202.418 35.6562 202.387 35.5625L197.699 22.2266H201.414L204.203 31.6484L206.84 22.2266H210.391L206.008 34.7891C205.164 37.2109 204.496 38.7109 204.004 39.2891C203.512 39.875 202.527 40.168 201.051 40.168C200.754 40.168 200.516 40.1641 200.336 40.1562C200.156 40.1562 199.887 40.1445 199.527 40.1211V37.4492ZM219.32 17.75H231.566V20.7852H222.906V24.7578H230.488V27.7578H222.906V35H219.32V17.75ZM237.156 20.7031H233.77V17.6211H237.156V20.7031ZM233.77 22.2266H237.156V35H233.77V22.2266ZM247.34 21.9219C247.402 21.9219 247.453 21.9258 247.492 21.9336C247.539 21.9336 247.637 21.9375 247.785 21.9453V25.3672C247.574 25.3438 247.387 25.3281 247.223 25.3203C247.059 25.3125 246.926 25.3086 246.824 25.3086C245.48 25.3086 244.578 25.7461 244.117 26.6211C243.859 27.1133 243.73 27.8711 243.73 28.8945V35H240.367V22.2266H243.555V24.4531C244.07 23.6016 244.52 23.0195 244.902 22.707C245.527 22.1836 246.34 21.9219 247.34 21.9219ZM264.027 21.9453C264.59 21.9453 265.145 22.0547 265.691 22.2734C266.238 22.4922 266.734 22.875 267.18 23.4219C267.539 23.8672 267.781 24.4141 267.906 25.0625C267.984 25.4922 268.023 26.1211 268.023 26.9492L268 35H264.578V26.8672C264.578 26.3828 264.5 25.9844 264.344 25.6719C264.047 25.0781 263.5 24.7812 262.703 24.7812C261.781 24.7812 261.145 25.1641 260.793 25.9297C260.613 26.3359 260.523 26.8242 260.523 27.3945V35H257.16V27.3945C257.16 26.6367 257.082 26.0859 256.926 25.7422C256.645 25.125 256.094 24.8164 255.273 24.8164C254.32 24.8164 253.68 25.125 253.352 25.7422C253.172 26.0938 253.082 26.6172 253.082 27.3125V35H249.695V22.25H252.941V24.1133C253.355 23.4492 253.746 22.9766 254.113 22.6953C254.762 22.1953 255.602 21.9453 256.633 21.9453C257.609 21.9453 258.398 22.1602 259 22.5898C259.484 22.9883 259.852 23.5 260.102 24.125C260.539 23.375 261.082 22.8242 261.73 22.4727C262.418 22.1211 263.184 21.9453 264.027 21.9453Z" fill="#013E6B"/>
<defs>
<linearGradient id="paint0_linear" x1="27.6133" y1="0.514815" x2="27.6133" y2="54.5645" gradientUnits="userSpaceOnUse">
<stop stop-color="white"/>
<stop offset="0.1758" stop-color="#0C2577"/>
</linearGradient>
<linearGradient id="paint1_linear" x1="27.6132" y1="54.6036" x2="27.6132" y2="0.51166" gradientUnits="userSpaceOnUse">
<stop stop-color="#404040"/>
<stop offset="0.1648"/>
</linearGradient>
</defs>
</svg>
